<svg xmlns="http://www.w3.org/2000/svg" viewBox="0 0 109.27 52.77"><defs><style>.cls-1{fill:#095ba4;}</style></defs><title>Payback</title><g id="front"><ellipse class="cls-1" cx="72.27" cy="35.27" rx="2.92" ry="2.86"/><path class="cls-1" d="M49.88,23.71c-.08.4-.17.73-.38,1.48l-.11.39h1l-.11-.39C50.05,24.43,50,24.11,49.88,23.71Z"/><ellipse class="cls-1" cx="72.27" cy="20.57" rx="2.92" ry="2.86"/><ellipse class="cls-1" cx="72.27" cy="27.92" rx="2.92" ry="2.86"/><path class="cls-1" d="M44.71,23.76c0-.26-.13-.47-.52-.47H42.95v.93h1.25C44.58,24.23,44.71,24,44.71,23.76Z"/><circle class="cls-1" cx="21.6" cy="23.46" r="1.36"/><path class="cls-1" d="M26.92,23.34H26v1.33h.87c.54,0,.75-.23.75-.68S27.45,23.34,26.92,23.34Z"/><path class="cls-1" d="M32.17,23.71c-.08.4-.17.73-.38,1.48l-.11.39h1l-.11-.39C32.34,24.43,32.25,24.11,32.17,23.71Z"/><path class="cls-1" d="M44.26,25.48H42.95v1.15h1.31a.54.54,0,0,0,.6-.58A.52.52,0,0,0,44.26,25.48Z"/><ellipse class="cls-1" cx="79.74" cy="20.57" rx="2.91" ry="2.86"/><path class="cls-1" d="M94,12.88H16.35a4,4,0,0,0-4,4V39a4,4,0,0,0,4,4H94a4,4,0,0,0,4-4V16.88A4,4,0,0,0,94,12.88ZM21.6,25.21a1.75,1.75,0,1,1,1.75-1.75A1.75,1.75,0,0,1,21.6,25.21Zm5.26.79H26v1.92H24.4V22H27c1.4,0,2.33.53,2.33,2S28.29,26,26.85,26Zm6.54,1.92-.32-1H31.27l-.32,1H29.17L31.34,22H33l2.17,5.92Zm5-2.21v2.21H36.76V25.74L34.55,22h1.91l.46.9a11.78,11.78,0,0,1,.68,1.53,12,12,0,0,1,.68-1.53l.46-.9h1.9Zm5.79,2.21H41.36V22h2.89c1.49,0,2.09.55,2.09,1.54a1.21,1.21,0,0,1-.72,1.16A1.31,1.31,0,0,1,46.47,26C46.47,27.22,45.73,27.92,44.23,27.92Zm6.88,0-.33-1H49l-.32,1H46.89L49.05,22h1.67l2.17,5.92ZM56,28c-1.78,0-2.72-1.3-2.72-3.05,0-1.9,1.13-3.05,2.73-3.05a2.27,2.27,0,0,1,2.46,1.74l-1.5.58c-.21-.55-.42-.9-1-.9S55,24,55,25s.29,1.62,1,1.62c.52,0,.74-.28,1.07-.84l1.4.74A2.57,2.57,0,0,1,56,28Zm6.9-.09L61.61,25.4l-.61.73v1.79H59.31V22H61v.69c0,.5,0,1,0,1.46.25-.39.77-1.08,1.15-1.56l.48-.6h2l-1.8,2.09,2,3.83Zm9.41,10.6a3.25,3.25,0,1,1,3.31-3.25A3.28,3.28,0,0,1,72.27,38.52Zm0-7.35a3.25,3.25,0,1,1,3.31-3.25A3.28,3.28,0,0,1,72.27,31.17Zm0-7.35a3.25,3.25,0,1,1,3.31-3.25A3.28,3.28,0,0,1,72.27,23.82Zm7.46,14.7A3.25,3.25,0,1,1,83,35.27,3.28,3.28,0,0,1,79.74,38.52Zm-3.11-10.6A3.11,3.11,0,1,1,79.74,31,3.08,3.08,0,0,1,76.63,27.92Zm3.11-4.1A3.25,3.25,0,1,1,83,20.57,3.28,3.28,0,0,1,79.74,23.82Zm7.48,14.52a3.05,3.05,0,1,1,3.11-3.05A3.08,3.08,0,0,1,87.22,38.33Zm0-7.36a3.05,3.05,0,1,1,3.11-3.05A3.08,3.08,0,0,1,87.22,31Zm0-7.34a3.05,3.05,0,1,1,3.11-3.05A3.08,3.08,0,0,1,87.22,23.63Z"/><ellipse class="cls-1" cx="79.74" cy="35.27" rx="2.91" ry="2.86"/></g></svg>